<svg width="20" height="24" viewBox="0 0 20 24" fill="none" xmlns="http://www.w3.org/2000/svg">
<path d="M17.6785 9.73214C17.6785 7.72881 16.8827 5.80753 15.4661 4.39096C14.0496 2.97439 12.1283 2.17857 10.125 2.17857C8.12163 2.17857 6.20035 2.97439 4.78378 4.39096C3.36721 5.80753 2.57139 7.72881 2.57139 9.73214C2.57139 12.8308 5.05064 16.8694 10.125 21.7071C15.1993 16.8694 17.6785 12.8308 17.6785 9.73214ZM10.125 24C3.96964 18.4053 0.892822 13.6483 0.892822 9.73214C0.892822 7.28363 1.86549 4.93539 3.59685 3.20403C5.32822 1.47267 7.67645 0.5 10.125 0.5C12.5735 0.5 14.9217 1.47267 16.6531 3.20403C18.3844 4.93539 19.3571 7.28363 19.3571 9.73214C19.3571 13.6483 16.2803 18.4053 10.125 24Z" fill="black"/>
<path d="M10.125 12.25C10.7928 12.25 11.4332 11.9847 11.9054 11.5125C12.3776 11.0403 12.6429 10.3999 12.6429 9.73214C12.6429 9.06436 12.3776 8.42394 11.9054 7.95175C11.4332 7.47956 10.7928 7.21428 10.125 7.21428C9.45724 7.21428 8.81681 7.47956 8.34462 7.95175C7.87243 8.42394 7.60716 9.06436 7.60716 9.73214C7.60716 10.3999 7.87243 11.0403 8.34462 11.5125C8.81681 11.9847 9.45724 12.25 10.125 12.25V12.25ZM10.125 13.9286C9.01206 13.9286 7.94468 13.4864 7.15769 12.6995C6.37071 11.9125 5.92859 10.8451 5.92859 9.73214C5.92859 8.61918 6.37071 7.5518 7.15769 6.76482C7.94468 5.97784 9.01206 5.53571 10.125 5.53571C11.238 5.53571 12.3054 5.97784 13.0923 6.76482C13.8793 7.5518 14.3214 8.61918 14.3214 9.73214C14.3214 10.8451 13.8793 11.9125 13.0923 12.6995C12.3054 13.4864 11.238 13.9286 10.125 13.9286Z" fill="black"/>
</svg>
